<svg width="800" height="800" viewBox="0 0 800 800" fill="currentColor" xmlns="http://www.w3.org/2000/svg">
<g clip-path="url(#clip0_2001_1328)">
<path d="M400 0C320.888 0 243.552 23.4596 177.772 67.4121C111.992 111.365 60.7234 173.836 30.4484 246.927C0.173314 320.017 -7.74802 400.444 7.68607 478.036C23.1201 555.628 61.2164 626.902 117.157 682.843C173.098 738.784 244.372 776.88 321.964 792.314C399.556 807.748 479.983 799.827 553.073 769.552C626.164 739.277 688.635 688.008 732.588 622.228C776.54 556.448 800 479.112 800 400C800 293.913 757.857 192.172 682.843 117.157C607.828 42.1427 506.087 0 400 0ZM400 628.571C354.793 628.571 310.601 615.166 273.013 590.05C235.424 564.934 206.128 529.236 188.828 487.47C171.528 445.704 167.001 399.746 175.821 355.408C184.64 311.069 206.41 270.342 238.376 238.376C270.342 206.409 311.07 184.64 355.408 175.821C399.747 167.001 445.705 171.528 487.47 188.828C529.236 206.128 564.934 235.424 590.05 273.013C615.166 310.601 628.571 354.793 628.571 400C628.571 460.621 604.49 518.759 561.624 561.624C518.759 604.49 460.621 628.571 400 628.571Z" fill="currentColor"/>
</g>
<defs>
<clipPath id="clip0_2001_1328">
<rect width="800" height="800" fill="white"/>
</clipPath>
</defs>
</svg>
